<svg width="24" height="24" viewBox="0 0 24 24" fill="none" xmlns="http://www.w3.org/2000/svg">
<g id="Icon">
<path id="Vector" fill-rule="evenodd" clip-rule="evenodd" d="M12 4C12.2761 4 12.5 3.77614 12.5 3.5C12.5 3.22386 12.2761 3 12 3C11.7239 3 11.5 3.22386 11.5 3.5C11.5 3.77614 11.7239 4 12 4ZM12.5 8.5C12.5 8.22386 12.2761 8 12 8C11.7239 8 11.5 8.22386 11.5 8.5V16.2929L7.35355 12.1464C7.15829 11.9512 6.84171 11.9512 6.64645 12.1464C6.45118 12.3417 6.45118 12.6583 6.64645 12.8536L11.6464 17.8536C11.8417 18.0488 12.1583 18.0488 12.3536 17.8536L17.3536 12.8536C17.5488 12.6583 17.5488 12.3417 17.3536 12.1464C17.1583 11.9512 16.8417 11.9512 16.6464 12.1464L12.5 16.2929V8.5ZM12 5C12.2761 5 12.5 5.22386 12.5 5.5V6.5C12.5 6.77614 12.2761 7 12 7C11.7239 7 11.5 6.77614 11.5 6.5V5.5C11.5 5.22386 11.7239 5 12 5ZM4 13.5C4 13.2239 3.77614 13 3.5 13C3.22386 13 3 13.2239 3 13.5V19C3 20.1046 3.89543 21 5 21H19C20.1046 21 21 20.1046 21 19V13.5C21 13.2239 20.7761 13 20.5 13C20.2239 13 20 13.2239 20 13.5V19C20 19.5523 19.5523 20 19 20H5C4.44772 20 4 19.5523 4 19V13.5Z" fill="white"/>
</g>
</svg>
